<svg width="48" height="48" viewBox="0 0 48 48" fill="none"
    xmlns="http://www.w3.org/2000/svg">
    <path fill-rule="evenodd" clip-rule="evenodd" d="M43.8107 20.0119C42.2691 17.5563 41.1777 14.9166 40.5297 12.0927C39.8817 9.26877 38.1424 7.5294 35.3184 6.8814C32.4945 6.2334 29.8548 5.14203 27.3992 3.60047C24.9436 2.05892 22.488 2.05892 20.0325 3.60047C17.5769 5.14203 14.9371 6.2334 12.1132 6.8814C9.28931 7.5294 7.54994 9.26877 6.90194 12.0927C6.25394 14.9166 5.16257 17.5563 3.62101 20.0119C2.07945 22.4675 2.07945 24.9231 3.62101 27.3787C5.16257 29.8342 6.25394 32.474 6.90194 35.2979C7.54994 38.1218 9.28931 39.8612 12.1132 40.5092C14.9371 41.1572 17.5769 42.2486 20.0325 43.7901C22.488 45.3317 24.9436 45.3317 27.3992 43.7901C29.8548 42.2486 32.4945 41.1572 35.3184 40.5092C38.1424 39.8612 39.8817 38.1218 40.5297 35.2979C41.1777 32.474 42.2691 29.8342 43.8107 27.3787C45.3522 24.9231 45.3522 22.4675 43.8107 20.0119ZM23.7157 38.6948C21.4511 38.6948 19.3093 38.1968 17.3858 37.2965C12.4746 37.2419 11.2059 36.3006 10.6534 35.864C10.0873 35.4207 10.517 34.7045 10.517 34.7045C10.517 34.7045 11.0422 34.0633 11.4719 33.4085C11.697 33.0742 11.7039 32.8082 11.6629 32.6377C9.80078 30.1343 8.69577 27.0308 8.69577 23.668C8.69577 15.3736 15.4213 8.64803 23.7157 8.64803C32.0101 8.64803 38.7357 15.3736 38.7357 23.668C38.7357 31.9624 32.0101 38.6948 23.7157 38.6948Z" fill="#D52B3F"/>
    <path fill-rule="evenodd" clip-rule="evenodd" d="M23.716 10.9058C16.6631 10.9058 10.947 16.6219 10.947 23.6748C10.947 27.0103 12.2294 30.0525 14.3234 32.3239C14.4735 32.6854 14.5076 33.0879 14.2007 33.4153C13.4572 34.2134 12.9115 34.3566 13.0411 34.7113C13.1707 35.0592 14.3439 35.332 17.543 34.8614C19.371 35.8777 21.4787 36.4507 23.716 36.4507C30.769 36.4507 36.485 30.7346 36.485 23.6817C36.485 16.6287 30.769 10.9058 23.716 10.9058Z" fill="#D52B3F"/>
</svg>
